# Blender 3.5.1
# www.blender.org
mtllib truncated_cone.mtl
o Cone
v 0.000000 -1.000000 -1.000000
v 0.195090 -1.000000 -0.980785
v 0.382683 -1.000000 -0.923880
v 0.555570 -1.000000 -0.831470
v 0.707107 -1.000000 -0.707107
v 0.831470 -1.000000 -0.555570
v 0.923880 -1.000000 -0.382683
v 0.980785 -1.000000 -0.195090
v 1.000000 -1.000000 0.000000
v 0.980785 -1.000000 0.195090
v 0.923880 -1.000000 0.382683
v 0.831470 -1.000000 0.555570
v 0.707107 -1.000000 0.707107
v 0.555570 -1.000000 0.831470
v 0.382683 -1.000000 0.923880
v 0.195090 -1.000000 0.980785
v 0.000000 -1.000000 1.000000
v -0.195090 -1.000000 0.980785
v -0.382683 -1.000000 0.923880
v -0.555570 -1.000000 0.831470
v -0.707107 -1.000000 0.707107
v -0.831470 -1.000000 0.555570
v -0.923880 -1.000000 0.382683
v -0.980785 -1.000000 0.195090
v -1.000000 -1.000000 0.000000
v -0.980785 -1.000000 -0.195090
v -0.923880 -1.000000 -0.382683
v -0.831470 -1.000000 -0.555570
v -0.707107 -1.000000 -0.707107
v -0.555570 -1.000000 -0.831470
v -0.382683 -1.000000 -0.923880
v -0.195090 -1.000000 -0.980785
v 0.162575 0.000000 -0.817321
v 0.000000 0.000000 -0.833333
v 0.318903 0.000000 -0.769900
v 0.462975 0.000000 -0.692891
v 0.589256 0.000000 -0.589256
v 0.692891 0.000000 -0.462975
v 0.769900 0.000000 -0.318903
v 0.817321 0.000000 -0.162575
v 0.833333 0.000000 0.000000
v 0.817321 0.000000 0.162575
v 0.769900 0.000000 0.318903
v 0.692891 0.000000 0.462975
v 0.589256 0.000000 0.589256
v 0.462975 0.000000 0.692891
v 0.318903 0.000000 0.769900
v 0.162575 0.000000 0.817321
v 0.000000 0.000000 0.833333
v -0.162575 0.000000 0.817321
v -0.318903 0.000000 0.769900
v -0.462975 0.000000 0.692891
v -0.589256 0.000000 0.589256
v -0.692891 0.000000 0.462975
v -0.769900 0.000000 0.318903
v -0.817321 0.000000 0.162575
v -0.833333 0.000000 0.000000
v -0.817321 0.000000 -0.162575
v -0.769900 0.000000 -0.318903
v -0.692891 0.000000 -0.462975
v -0.589256 0.000000 -0.589256
v -0.462975 0.000000 -0.692891
v -0.318903 0.000000 -0.769900
v -0.162575 0.000000 -0.817321
vn 0.0967 0.1636 -0.9818
vn 0.2864 0.1636 -0.9440
vn 0.4650 0.1636 -0.8700
vn 0.6258 0.1636 -0.7626
vn 0.7626 0.1636 -0.6258
vn 0.8700 0.1636 -0.4650
vn 0.9440 0.1636 -0.2864
vn 0.9818 0.1636 -0.0967
vn 0.9818 0.1636 0.0967
vn 0.9440 0.1636 0.2864
vn 0.8700 0.1636 0.4650
vn 0.7626 0.1636 0.6258
vn 0.6258 0.1636 0.7626
vn 0.4650 0.1636 0.8700
vn 0.2864 0.1636 0.9440
vn 0.0967 0.1636 0.9818
vn -0.0967 0.1636 0.9818
vn -0.2864 0.1636 0.9440
vn -0.4650 0.1636 0.8700
vn -0.6258 0.1636 0.7626
vn -0.7626 0.1636 0.6258
vn -0.8700 0.1636 0.4650
vn -0.9440 0.1636 0.2864
vn -0.9818 0.1636 0.0967
vn -0.9818 0.1636 -0.0967
vn -0.9440 0.1636 -0.2864
vn -0.8700 0.1636 -0.4650
vn -0.7626 0.1636 -0.6258
vn -0.6258 0.1636 -0.7626
vn -0.4650 0.1636 -0.8700
vn -0.0000 -1.0000 -0.0000
vn -0.2864 0.1636 -0.9440
vn -0.0967 0.1636 -0.9818
vn -0.0000 1.0000 -0.0000
vt 0.750000 0.490000
vt 0.250000 0.490000
vt 0.296822 0.485388
vt 0.796822 0.485388
vt 0.341844 0.471731
vt 0.841844 0.471731
vt 0.383337 0.449553
vt 0.883337 0.449553
vt 0.419706 0.419706
vt 0.919706 0.419706
vt 0.449553 0.383337
vt 0.949553 0.383337
vt 0.471731 0.341844
vt 0.971731 0.341844
vt 0.485388 0.296822
vt 0.985388 0.296822
vt 0.490000 0.250000
vt 0.990000 0.250000
vt 0.485388 0.203178
vt 0.985388 0.203178
vt 0.471731 0.158156
vt 0.971731 0.158156
vt 0.449553 0.116663
vt 0.949553 0.116663
vt 0.419706 0.080294
vt 0.919706 0.080294
vt 0.383337 0.050447
vt 0.883337 0.050447
vt 0.341844 0.028269
vt 0.841844 0.028269
vt 0.296822 0.014612
vt 0.796822 0.014612
vt 0.250000 0.010000
vt 0.750000 0.010000
vt 0.203178 0.014612
vt 0.703178 0.014612
vt 0.158156 0.028269
vt 0.658156 0.028269
vt 0.116663 0.050447
vt 0.616663 0.050447
vt 0.080294 0.080294
vt 0.580294 0.080294
vt 0.050447 0.116663
vt 0.550447 0.116663
vt 0.028269 0.158156
vt 0.528269 0.158156
vt 0.014612 0.203178
vt 0.514612 0.203178
vt 0.010000 0.250000
vt 0.510000 0.250000
vt 0.014612 0.296822
vt 0.514612 0.296822
vt 0.028269 0.341844
vt 0.528269 0.341844
vt 0.050447 0.383337
vt 0.550447 0.383337
vt 0.080294 0.419706
vt 0.580294 0.419706
vt 0.116663 0.449553
vt 0.616663 0.449553
vt 0.658156 0.471731
vt 0.158156 0.471731
vt 0.703178 0.485388
vt 0.203178 0.485388
vt 0.289018 0.446157
vt 0.270322 0.522835
vt 0.250000 0.450000
vt 0.250000 0.520833
vt 0.326537 0.434776
vt 0.289863 0.528763
vt 0.361114 0.416294
vt 0.307872 0.538389
vt 0.391421 0.391421
vt 0.323657 0.551343
vt 0.416294 0.361114
vt 0.336611 0.567128
vt 0.434776 0.326537
vt 0.346237 0.585137
vt 0.446157 0.289018
vt 0.352165 0.604678
vt 0.450000 0.250000
vt 0.354167 0.625000
vt 0.446157 0.210982
vt 0.352165 0.645322
vt 0.434776 0.173463
vt 0.346237 0.664863
vt 0.416294 0.138886
vt 0.336611 0.682872
vt 0.391421 0.108579
vt 0.323657 0.698657
vt 0.361114 0.083706
vt 0.307872 0.711611
vt 0.326537 0.065224
vt 0.289863 0.721237
vt 0.289018 0.053843
vt 0.270322 0.727165
vt 0.250000 0.050000
vt 0.250000 0.729167
vt 0.210982 0.053843
vt 0.229678 0.727165
vt 0.173463 0.065224
vt 0.210137 0.721237
vt 0.138886 0.083706
vt 0.192128 0.711611
vt 0.108579 0.108579
vt 0.176343 0.698657
vt 0.083706 0.138886
vt 0.163389 0.682872
vt 0.065224 0.173463
vt 0.153763 0.664863
vt 0.053843 0.210982
vt 0.147835 0.645322
vt 0.050000 0.250000
vt 0.145833 0.625000
vt 0.053843 0.289018
vt 0.147835 0.604678
vt 0.065224 0.326537
vt 0.153763 0.585137
vt 0.083706 0.361114
vt 0.163389 0.567128
vt 0.108579 0.391421
vt 0.176343 0.551343
vt 0.138886 0.416294
vt 0.192128 0.538389
vt 0.173463 0.434776
vt 0.210137 0.528763
vt 0.210982 0.446157
vt 0.229678 0.522835
s 0
f 2/3/1 1/2/1 34/67/1 33/65/1
f 35/69/2 3/5/2 2/3/2 33/65/2
f 36/71/3 4/7/3 3/5/3 35/69/3
f 37/73/4 5/9/4 4/7/4 36/71/4
f 6/11/5 5/9/5 37/73/5 38/75/5
f 7/13/6 6/11/6 38/75/6 39/77/6
f 8/15/7 7/13/7 39/77/7 40/79/7
f 41/81/8 9/17/8 8/15/8 40/79/8
f 42/83/9 10/19/9 9/17/9 41/81/9
f 43/85/10 11/21/10 10/19/10 42/83/10
f 44/87/11 12/23/11 11/21/11 43/85/11
f 45/89/12 13/25/12 12/23/12 44/87/12
f 14/27/13 13/25/13 45/89/13 46/91/13
f 15/29/14 14/27/14 46/91/14 47/93/14
f 16/31/15 15/29/15 47/93/15 48/95/15
f 49/97/16 17/33/16 16/31/16 48/95/16
f 50/99/17 18/35/17 17/33/17 49/97/17
f 51/101/18 19/37/18 18/35/18 50/99/18
f 52/103/19 20/39/19 19/37/19 51/101/19
f 53/105/20 21/41/20 20/39/20 52/103/20
f 22/43/21 21/41/21 53/105/21 54/107/21
f 23/45/22 22/43/22 54/107/22 55/109/22
f 24/47/23 23/45/23 55/109/23 56/111/23
f 25/49/24 24/47/24 56/111/24 57/113/24
f 26/51/25 25/49/25 57/113/25 58/115/25
f 59/117/26 27/53/26 26/51/26 58/115/26
f 60/119/27 28/55/27 27/53/27 59/117/27
f 61/121/28 29/57/28 28/55/28 60/119/28
f 30/59/29 29/57/29 61/121/29 62/123/29
f 31/62/30 30/59/30 62/123/30 63/125/30
f 32/63/31 1/1/31 2/4/31 3/6/31 4/8/31 5/10/31 6/12/31 7/14/31 8/16/31 9/18/31 10/20/31 11/22/31 12/24/31 13/26/31 14/28/31 15/30/31 16/32/31 17/34/31 18/36/31 19/38/31 20/40/31 21/42/31 22/44/31 23/46/31 24/48/31 25/50/31 26/52/31 27/54/31 28/56/31 29/58/31 30/60/31 31/61/31
f 32/64/32 31/62/32 63/125/32 64/127/32
f 1/2/33 32/64/33 64/127/33 34/67/33
f 39/78/34 38/76/34 37/74/34 36/72/34 35/70/34 33/66/34 34/68/34 64/128/34 63/126/34 62/124/34 61/122/34 60/120/34 59/118/34 58/116/34 57/114/34 56/112/34 55/110/34 54/108/34 53/106/34 52/104/34 51/102/34 50/100/34 49/98/34 48/96/34 47/94/34 46/92/34 45/90/34 44/88/34 43/86/34 42/84/34 41/82/34 40/80/34
